<svg xmlns="http://www.w3.org/2000/svg" viewBox="0 0 229.61 127.56"><defs><style>.cls-1{font-size:12.33px;}.cls-1,.cls-4{fill:#231815;}.cls-1,.cls-4,.cls-81{font-family:KozGoPr6N-Regular-83pv-RKSJ-H, Kozuka Gothic Pr6N;}.cls-2{letter-spacing:-0.06em;}.cls-3{letter-spacing:0em;}.cls-12,.cls-4{font-size:7.09px;}.cls-4{letter-spacing:-0.04em;}.cls-5{letter-spacing:-0.03em;}.cls-6{letter-spacing:-0.04em;}.cls-7{letter-spacing:0.04em;}.cls-8{letter-spacing:-0.03em;}.cls-9{letter-spacing:-0.06em;}.cls-10{letter-spacing:0em;}.cls-11{letter-spacing:0em;}.cls-12,.cls-53,.cls-70,.cls-81{fill:#ee96bd;}.cls-12,.cls-53,.cls-70{font-family:TsukuARdGothic-Regular-83pv-RKSJ-H, Tsukushi A Round Gothic;}.cls-13{letter-spacing:0.04em;}.cls-14{letter-spacing:0.04em;}.cls-15{letter-spacing:0.05em;}.cls-16{letter-spacing:0.05em;}.cls-17{letter-spacing:0.03em;}.cls-18{letter-spacing:0.03em;}.cls-19{letter-spacing:0.03em;}.cls-20{letter-spacing:0.01em;}.cls-21{letter-spacing:0.03em;}.cls-22{letter-spacing:-0.01em;}.cls-23{letter-spacing:0.01em;}.cls-24{letter-spacing:0.02em;}.cls-25{letter-spacing:0.01em;}.cls-26{letter-spacing:0em;}.cls-27{letter-spacing:0.02em;}.cls-28{letter-spacing:0.01em;}.cls-29{letter-spacing:0.01em;}.cls-30{letter-spacing:0.01em;}.cls-31{letter-spacing:0.02em;}.cls-32{letter-spacing:0em;}.cls-33{letter-spacing:0.01em;}.cls-34{letter-spacing:-0.01em;}.cls-35{letter-spacing:0.01em;}.cls-36{letter-spacing:0.02em;}.cls-37{letter-spacing:0.02em;}.cls-38{letter-spacing:0.02em;}.cls-39{letter-spacing:0.01em;}.cls-40{letter-spacing:0.03em;}.cls-41{letter-spacing:0.01em;}.cls-42{letter-spacing:0.01em;}.cls-43{letter-spacing:0em;}.cls-44{letter-spacing:0.01em;}.cls-45{letter-spacing:0.05em;}.cls-46{letter-spacing:0.02em;}.cls-47{letter-spacing:0.02em;}.cls-48{letter-spacing:0.01em;}.cls-49{letter-spacing:0.03em;}.cls-50{letter-spacing:-0.01em;}.cls-51{letter-spacing:0.01em;}.cls-52{fill:#fcf8c2;}.cls-53{font-size:7.07px;}.cls-54{letter-spacing:0em;}.cls-55{letter-spacing:-0.02em;}.cls-56{letter-spacing:-0.02em;}.cls-57{letter-spacing:-0.03em;}.cls-58{letter-spacing:0.01em;}.cls-59{letter-spacing:0.05em;}.cls-60{letter-spacing:-0.04em;}.cls-61{letter-spacing:-0.09em;}.cls-62{letter-spacing:0.28em;}.cls-63{letter-spacing:-0.04em;}.cls-64{letter-spacing:-0.06em;}.cls-65{letter-spacing:-0.01em;}.cls-66{letter-spacing:-0.06em;}.cls-67{letter-spacing:-0.06em;}.cls-68{letter-spacing:-0.07em;}.cls-69{letter-spacing:-0.11em;}.cls-70{font-size:22.68px;}.cls-71{letter-spacing:-0.09em;}.cls-72{letter-spacing:-0.06em;}.cls-73{letter-spacing:-0.05em;}.cls-74{letter-spacing:0.01em;}.cls-75{letter-spacing:0em;}.cls-76{letter-spacing:0.01em;}.cls-77{letter-spacing:0.01em;}.cls-78{letter-spacing:0.02em;}.cls-79{letter-spacing:0.02em;}.cls-80{letter-spacing:0.02em;}.cls-81{font-size:7.09px;}</style></defs><g id="レイヤー_2" data-name="レイヤー 2"><g id="アートボード1"><text class="cls-1" transform="translate(89.77 25.31) scale(0.97 1)"><tspan class="cls-2">木</tspan><tspan x="11.61" y="0">下 </tspan><tspan class="cls-3" x="26.81" y="0">優</tspan><tspan x="39.11" y="0">希</tspan></text><text/><text class="cls-4" transform="translate(96.77 55.07)">〒<tspan class="cls-5" x="6.82" y="0">9</tspan><tspan class="cls-6" x="10.52" y="0">1</tspan><tspan class="cls-7" x="14.14" y="0">0-</tspan><tspan class="cls-8" x="21.07" y="0">0</tspan><tspan class="cls-9" x="24.74" y="0">1</tspan><tspan class="cls-10" x="28.22" y="0">3</tspan><tspan class="cls-11" x="32.16" y="0">8</tspan></text><text/><text class="cls-12" transform="translate(166.34 106.12)"><tspan class="cls-13">0</tspan><tspan class="cls-14" x="4.4" y="0">8</tspan><tspan class="cls-15" x="8.8" y="0">0</tspan><tspan class="cls-16" x="13.24" y="0">-</tspan><tspan class="cls-17" x="16.94" y="0">6</tspan><tspan class="cls-18" x="21.25" y="0">3</tspan><tspan class="cls-19" x="25.54" y="0">6</tspan><tspan class="cls-15" x="29.84" y="0">0</tspan><tspan x="34.27" y="0">-</tspan><tspan class="cls-20" x="37.62" y="0">2</tspan><tspan class="cls-21" x="41.81" y="0">3</tspan><tspan class="cls-22" x="46.15" y="0">8</tspan><tspan x="50.19" y="0">7</tspan></text><text class="cls-12" transform="matrix(1, 0, 0, 1, 105.1, 112.95)"><tspan class="cls-23">y</tspan><tspan class="cls-24" x="3.57" y="0">-</tspan><tspan class="cls-25" x="7.05" y="0">k</tspan><tspan class="cls-26" x="10.76" y="0">i</tspan><tspan class="cls-27" x="12.68" y="0">n</tspan><tspan class="cls-28" x="16.77" y="0">o</tspan><tspan class="cls-29" x="20.91" y="0">sh</tspan><tspan class="cls-30" x="28.03" y="0">i</tspan><tspan class="cls-31" x="30.02" y="0">t</tspan><tspan class="cls-32" x="32.62" y="0">a</tspan><tspan class="cls-33" x="36.25" y="0">7</tspan><tspan class="cls-34" x="40.44" y="0">2</tspan><tspan class="cls-35" x="44.47" y="0">7</tspan><tspan class="cls-36" x="48.63" y="0">3</tspan><tspan class="cls-37" x="52.88" y="0">@</tspan><tspan class="cls-38" x="58.95" y="0">s</tspan><tspan class="cls-27" x="62.15" y="0">t</tspan><tspan class="cls-39" x="64.79" y="0">.</tspan><tspan class="cls-40" x="66.76" y="0">k</tspan><tspan class="cls-41" x="70.63" y="0">y</tspan><tspan class="cls-42" x="74.19" y="0">o</tspan><tspan class="cls-43" x="78.28" y="0">t</tspan><tspan class="cls-21" x="80.76" y="0">o</tspan><tspan class="cls-30" x="85.05" y="0">-</tspan><tspan class="cls-44" x="88.5" y="0">a</tspan><tspan class="cls-45" x="92.27" y="0">r</tspan><tspan class="cls-46" x="95.2" y="0">t</tspan><tspan class="cls-47" x="97.84" y="0">.</tspan><tspan class="cls-48" x="99.87" y="0">a</tspan><tspan class="cls-49" x="103.64" y="0">c</tspan><tspan class="cls-50" x="107.43" y="0">.</tspan><tspan class="cls-51" x="109.25" y="0">j</tspan><tspan x="111.22" y="0">p</tspan></text><rect class="cls-52" x="72.2" width="157.4" height="70.3"/><rect class="cls-52" y="70.3" width="72.2" height="57.25"/><text class="cls-53" transform="matrix(1, 0, 0.02, 1, 185.79, 84.14)"><tspan class="cls-54">福</tspan><tspan class="cls-55" x="7.08" y="0">井</tspan><tspan class="cls-56" x="14.02" y="0">県</tspan><tspan class="cls-57" x="20.92" y="0">出</tspan><tspan x="27.8" y="0">身</tspan><tspan class="cls-58" x="-34.69" y="12.37">2</tspan><tspan class="cls-59" x="-30.51" y="12.37">0</tspan><tspan class="cls-60" x="-26.08" y="12.37">0</tspan><tspan class="cls-61" x="-22.28" y="12.37">1</tspan><tspan class="cls-62" x="-18.84" y="12.37">年</tspan><tspan class="cls-63" x="-9.82" y="12.37">4</tspan><tspan class="cls-64" x="-6.03" y="12.37">月</tspan><tspan class="cls-65" x="0.6" y="12.37">2</tspan><tspan class="cls-66" x="4.64" y="12.37">6</tspan><tspan class="cls-67" x="8.31" y="12.37">日</tspan><tspan class="cls-68" x="14.95" y="12.37">生</tspan><tspan class="cls-69" x="21.52" y="12.37">ま</tspan><tspan x="27.81" y="12.37">れ</tspan></text><text class="cls-70" transform="translate(137.92 39.73)"><tspan class="cls-71">木</tspan><tspan class="cls-72" x="20.61" y="0">下</tspan><tspan class="cls-73" x="41.83" y="0">優</tspan><tspan x="63.37" y="0">希</tspan></text><text class="cls-12" transform="translate(175.34 50.67)"><tspan class="cls-74">k</tspan><tspan class="cls-75" x="3.71" y="0">i</tspan><tspan class="cls-27" x="5.63" y="0">n</tspan><tspan class="cls-28" x="9.73" y="0">o</tspan><tspan class="cls-76" x="13.87" y="0">sh</tspan><tspan class="cls-77" x="20.98" y="0">i</tspan><tspan class="cls-78" x="22.97" y="0">t</tspan><tspan x="25.57" y="0">a </tspan><tspan class="cls-79" x="31.36" y="0">y</tspan><tspan class="cls-80" x="34.97" y="0">u</tspan><tspan class="cls-74" x="39.02" y="0">k</tspan><tspan x="42.73" y="0">i</tspan></text><text class="cls-81" transform="translate(140.56 121.89) scale(1 0.97)">Instagram ＠kiiiiino_pppi</text></g></g></svg>